<svg width="52" height="52" xmlns="http://www.w3.org/2000/svg">

 <g>
  <title>background</title>
  <rect fill="none" id="canvas_background" height="402" width="582" y="-1" x="-1"/>
 </g>
 <g>
  <title>Layer 1</title>
  <path fill="#fdfdf0" id="svg_2" d="m48.65497,27.70005l-22,-19.10004c-0.36999,-0.32 -0.92999,-0.32 -1.31,0l-8.34314,7.24335l0,-3.57568c0,-0.55225 -0.44726,-1 -1,-1c-0.55273,0 -1,0.44775 -1,1l0,5.31207l-11.65686,10.1203c-0.41998,0.35999 -0.45996,0.98999 -0.09997,1.40997c0.35998,0.40998 1,0.46003 1.40997,0.09998l5.35004,-4.63995l0,18.06994c0,0.55005 0.44,1 1,1l30,0c0.54999,0 1,-0.44995 1,-1l0,-18.06994l5.33996,4.63995c0.19001,0.16003 0.42005,0.24005 0.66004,0.24005c0.27997,0 0.54999,-0.11005 0.75,-0.34003c0.35998,-0.41998 0.32001,-1.04998 -0.10004,-1.40997zm-21.65411,2.75708l0,5.18555c0,0.55224 -0.44727,1 -1,1s-1,-0.44776 -1,-1l0,-5.18689c-1.16174,-0.41333 -1.99585,-1.51007 -1.99585,-2.8158c0,-1.64996 1.33996,-3 3,-3c1.64996,0 3,1.35004 3,3c0,1.30737 -0.84241,2.40503 -2.00415,2.81714z"/>
 </g>
</svg>